<svg width="353" height="784" viewBox="0 0 353 784" fill="none" xmlns="http://www.w3.org/2000/svg">
<path d="M56.5002 521.5C63.7002 461.1 22.5002 404 1.00018 383V764.5C73.8002 743.3 83.6909 691.784 64.0002 662.5C32.8002 616.1 49.3002 581.9 56.5002 521.5Z" fill="#36D6AD"/>
<path d="M1.00018 368C30.1668 396.5 85.3002 467.1 72.5002 521.5C59.7002 575.9 45.3002 609.1 72.5002 653.5C95.7795 691.5 87.8002 759.8 1.00018 783M1.00018 383C22.5002 404 63.7002 461.1 56.5002 521.5C49.3002 581.9 32.8002 616.1 64.0002 662.5C83.6909 691.784 73.8002 743.3 1.00018 764.5V383Z" stroke="#36D6AD" stroke-width="2"/>
<path d="M-0.5 295C0.637588 241.391 14.4678 156.602 122.111 131.519C158.266 124.707 166.649 125.231 223.763 122.611C277.733 118.419 325.624 104.377 351.614 0" stroke="#36D6AD" stroke-width="2"/>
<path d="M333.275 0C326.045 36.2351 278.362 108.906 145.465 109.707C81.6337 111.505 8.52078 140.319 0.709914 237.389V273.517C-0.222722 260.536 -0.185294 248.514 0.709914 237.389V0H333.275Z" fill="#36D6AD" stroke="#36D6AD"/>
</svg>
